<svg width="249" height="270" viewBox="0 0 249 270" fill="none" xmlns="http://www.w3.org/2000/svg">
<path d="M166.625 66.1887L193.342 72.9046C195.581 73.4674 197.143 75.4896 197.123 77.7979L196.651 131.261C196.633 133.342 197.905 135.216 199.846 135.968L205.214 138.046C208.038 139.14 209.249 142.473 207.786 145.125L202.927 153.928C202.418 154.851 201.63 155.589 200.677 156.038L171.445 169.776C170.491 170.224 169.703 170.963 169.194 171.885L161.113 186.528C160.571 187.51 159.715 188.282 158.682 188.718L143.83 194.995C142.797 195.432 141.941 196.203 141.399 197.185L137.839 203.635C137.334 204.552 136.553 205.286 135.608 205.735L112.598 216.673C111.574 217.16 110.415 217.284 109.311 217.025L95.4664 213.78C94.4599 213.544 93.5513 213.001 92.8656 212.228L86.0346 204.52C85.0648 203.426 84.6226 201.962 84.8245 200.513L90.4793 159.944C90.6469 158.741 91.2463 157.641 92.1655 156.848L100.328 149.806C100.777 149.419 101.154 148.955 101.44 148.436L106.956 138.441C107.692 137.107 107.78 135.51 107.194 134.104L104.091 126.648C103.506 125.242 103.593 123.645 104.329 122.311L105.397 120.377C106.683 118.047 105.918 115.117 103.657 113.713L76.2071 96.6692C75.1076 95.9865 74.3156 94.904 73.9978 93.6494L68.4497 71.7493C68.1381 70.5192 68.3058 69.2166 68.9189 68.1056L79.3071 49.2815C79.715 48.5423 80.3034 47.9185 81.0175 47.4681L117.509 24.4545C119.05 23.4828 120.997 23.4259 122.592 24.306L153.741 41.4954C154.782 42.0699 155.584 42.9965 156.003 44.109L163.165 63.1036C163.743 64.6367 165.036 65.7893 166.625 66.1887Z" fill="#5DC328" stroke="#167D16" stroke-width="4"/>
<path d="M48.3532 228.341C91.059 235.636 161.894 160.357 164.312 64.9007" stroke="#167D16" stroke-width="3"/>
<path d="M81.1702 48.1199C85.6606 56.709 126.733 83.7525 162.211 94.9799C174.915 99.0005 186.757 98.4734 196.148 97.8705" stroke="#167D16" stroke-width="3"/>
<path d="M105.325 117.948C110.654 128.141 125.334 140.359 147.802 145.636C163.901 149.417 184.336 148.196 206.637 146.765" stroke="#167D16" stroke-width="3"/>
<path d="M161.979 186.002C150.149 183.992 136.718 184.818 126.792 181.235C111.9 175.861 101.688 165.251 90.9312 157.739" stroke="#167D16" stroke-width="3"/>
</svg>
